<?xml version="1.0" standalone="no"?>
<!DOCTYPE svg PUBLIC "-//W3C//DTD SVG 20010904//EN"
 "http://www.w3.org/TR/2001/REC-SVG-20010904/DTD/svg10.dtd">
<svg version="1.0" xmlns="http://www.w3.org/2000/svg"
 width="700.000000pt" height="700.000000pt" viewBox="0 0 700.000000 700.000000"
 preserveAspectRatio="xMidYMid meet">
<metadata>
Created by potrace 1.14, written by Peter Selinger 2001-2017
</metadata>
<g transform="translate(0.000000,700.000000) scale(0.100000,-0.100000)"
fill="#000000" stroke="none">
<path d="M2819 6705 c-2 -2 -24 -6 -47 -10 -24 -3 -74 -15 -110 -27 -309 -95
-535 -347 -608 -677 -4 -20 -14 -298 -14 -427 l0 -21 -463 -1 c-254 0 -487 -3
-517 -7 -324 -40 -610 -271 -716 -575 -55 -157 -53 -95 -53 -1745 0 -1618 0
-1599 45 -1739 81 -248 281 -454 529 -547 47 -17 109 -33 180 -46 17 -3 1110
-6 2430 -7 2489 -2 2488 -2 2615 38 311 96 539 355 608 689 3 18 7 730 9 1582
2 1668 4 1614 -49 1771 -53 157 -177 322 -314 420 -117 83 -269 142 -413 159
-30 4 -261 7 -513 7 l-458 1 0 31 c-1 154 -10 388 -15 416 -25 126 -84 261
-158 360 -67 89 -78 100 -214 211 -28 22 -172 89 -233 108 -121 38 -203 41
-871 41 -356 -1 -648 -3 -650 -5z m1379 -604 c69 -31 144 -112 163 -178 8 -31
13 -105 14 -213 l0 -165 -875 -1 -876 -2 1 172 c1 112 6 185 15 211 32 97 124
176 223 193 22 4 320 7 661 6 l621 0 53 -23z m1752 -1167 c76 -36 134 -100
160 -179 20 -58 22 -1372 2 -1391 -42 -43 -498 -277 -692 -357 -393 -160 -852
-286 -1215 -333 -27 -3 -57 -8 -66 -9 -9 -2 -52 -6 -95 -10 -43 -4 -88 -9 -98
-11 -120 -22 -737 -22 -891 0 -16 3 -64 8 -105 11 -41 4 -84 9 -95 11 -11 2
-36 5 -55 8 -406 53 -906 195 -1310 372 -116 51 -413 202 -515 262 l-100 60 1
673 c1 371 4 683 7 694 27 103 101 180 199 209 34 11 514 13 2433 12 l2390 -1
45 -21z m174 -2731 c0 -349 -4 -510 -12 -539 -23 -81 -94 -154 -180 -187 -39
-16 -234 -17 -2427 -17 -2161 0 -2389 2 -2432 16 -87 29 -161 104 -185 188 -8
29 -12 191 -12 534 -1 270 0 492 1 492 2 0 72 -33 156 -74 162 -79 314 -146
449 -197 46 -17 92 -35 103 -40 47 -20 411 -136 456 -144 9 -2 52 -13 95 -24
68 -18 153 -38 244 -57 41 -8 233 -43 265 -48 17 -2 55 -8 85 -12 30 -4 62 -8
70 -9 8 -2 44 -6 80 -9 36 -4 79 -9 95 -11 216 -27 848 -26 1050 1 17 2 57 6
90 10 103 10 127 13 235 29 566 87 1173 282 1655 531 66 34 120 63 120 63 0 1
0 -223 -1 -496z"/>
<path d="M3420 3781 c-77 -24 -143 -79 -182 -153 -33 -62 -33 -194 0 -256 112
-210 406 -217 520 -11 59 107 40 251 -46 342 -67 71 -199 106 -292 78z"/>
</g>
</svg>
